<svg width="21" height="22" viewBox="0 0 21 22" fill="none" xmlns="http://www.w3.org/2000/svg">
<path fill-rule="evenodd" clip-rule="evenodd" d="M7.5 0.25C7.91421 0.25 8.25 0.585786 8.25 1V2.26061C8.91924 2.25 9.66284 2.25 10.4889 2.25H10.5111C11.3372 2.25 12.0808 2.25 12.75 2.26061V1C12.75 0.585786 13.0858 0.25 13.5 0.25C13.9142 0.25 14.25 0.585786 14.25 1V2.31358C15.7619 2.40837 16.9234 2.65335 17.8798 3.34815C18.3679 3.70281 18.7972 4.13209 19.1518 4.62023C19.7377 5.42656 20 6.37094 20.1263 7.53648C20.25 8.67861 20.25 10.1182 20.25 11.9547V12.0115C20.25 13.1713 20.25 14.1686 20.2206 15.0257C20.1564 16.8991 19.9537 18.2761 19.1518 19.3798C18.7972 19.8679 18.3679 20.2972 17.8798 20.6518C16.7761 21.4537 15.3991 21.6564 13.5257 21.7206C12.6684 21.75 11.671 21.75 10.5108 21.75H10.4547C8.6182 21.75 7.17861 21.75 6.03648 21.6263C4.87094 21.5 3.92656 21.2377 3.12024 20.6518C2.63209 20.2972 2.20281 19.8679 1.84815 19.3798C1.26232 18.5734 1.00001 17.6291 0.873728 16.4635C0.749985 15.3214 0.749992 13.8818 0.75 12.0452V11.9548C0.749992 10.1182 0.749985 8.67861 0.873728 7.53648C1.00001 6.37094 1.26232 5.42656 1.84815 4.62023C2.20281 4.13209 2.63209 3.70281 3.12024 3.34815C4.07655 2.65335 5.23808 2.40837 6.75 2.31358V1C6.75 0.585786 7.08579 0.25 7.5 0.25ZM6.75 3.81725C5.38795 3.91092 4.60177 4.12585 4.00191 4.56168C3.64111 4.82382 3.32382 5.14111 3.06168 5.50191C2.69259 6.00992 2.47745 6.66013 2.365 7.69804C2.25103 8.74999 2.25 10.1084 2.25 12C2.25 13.8916 2.25103 15.25 2.365 16.302C2.47745 17.3399 2.69259 17.9901 3.06168 18.4981C3.32382 18.8589 3.64111 19.1762 4.00191 19.4383C4.50992 19.8074 5.16013 20.0225 6.19805 20.135C7.24999 20.249 8.60843 20.25 10.5 20.25C11.3483 20.25 12.0918 20.2499 12.7518 20.2392C12.7562 19.7645 12.771 19.4151 12.8208 19.1005C13.2105 16.6401 15.1401 14.7105 17.6005 14.3208C17.9151 14.271 18.2645 14.2562 18.7392 14.2518C18.75 13.5918 18.75 12.8483 18.75 12C18.75 10.1084 18.749 8.74999 18.635 7.69804C18.5225 6.66013 18.3074 6.00992 17.9383 5.50191C17.6762 5.14111 17.3589 4.82382 16.9981 4.56168C16.3982 4.12585 15.6121 3.91092 14.25 3.81725V4C14.25 4.41421 13.9142 4.75 13.5 4.75C13.0858 4.75 12.75 4.41421 12.75 4V3.76079C12.0904 3.75005 11.3476 3.75 10.5 3.75C9.65243 3.75 8.90959 3.75005 8.25 3.76079V4C8.25 4.41421 7.91421 4.75 7.5 4.75C7.08579 4.75 6.75 4.41421 6.75 4V3.81725ZM18.6826 15.7528C18.2776 15.7575 18.0402 15.7699 17.8352 15.8023C16.0166 16.0904 14.5904 17.5166 14.3023 19.3352C14.2699 19.5402 14.2575 19.7776 14.2528 20.1826C15.6131 20.0888 16.3986 19.8738 16.9981 19.4383C17.3589 19.1762 17.6762 18.8589 17.9383 18.4981C18.3739 17.8986 18.5888 17.1131 18.6826 15.7528Z" fill="#09FF3F"/>
<path d="M6.5 8C6.5 8.55228 6.05229 9 5.5 9C4.94772 9 4.5 8.55228 4.5 8C4.5 7.44772 4.94772 7 5.5 7C6.05229 7 6.5 7.44772 6.5 8Z" fill="#09FF3F"/>
<path d="M6.5 12C6.5 12.5523 6.05229 13 5.5 13C4.94772 13 4.5 12.5523 4.5 12C4.5 11.4477 4.94772 11 5.5 11C6.05229 11 6.5 11.4477 6.5 12Z" fill="#09FF3F"/>
<path d="M11.5 8C11.5 8.55228 11.0523 9 10.5 9C9.94772 9 9.5 8.55228 9.5 8C9.5 7.44772 9.94772 7 10.5 7C11.0523 7 11.5 7.44772 11.5 8Z" fill="#09FF3F"/>
<path d="M11.5 12C11.5 12.5523 11.0523 13 10.5 13C9.94772 13 9.5 12.5523 9.5 12C9.5 11.4477 9.94772 11 10.5 11C11.0523 11 11.5 11.4477 11.5 12Z" fill="#09FF3F"/>
<path d="M11.5 16C11.5 16.5523 11.0523 17 10.5 17C9.94772 17 9.5 16.5523 9.5 16C9.5 15.4477 9.94772 15 10.5 15C11.0523 15 11.5 15.4477 11.5 16Z" fill="#09FF3F"/>
<path d="M16.5 8C16.5 8.55228 16.0523 9 15.5 9C14.9477 9 14.5 8.55228 14.5 8C14.5 7.44772 14.9477 7 15.5 7C16.0523 7 16.5 7.44772 16.5 8Z" fill="#09FF3F"/>
<path d="M16.5 12C16.5 12.5523 16.0523 13 15.5 13C14.9477 13 14.5 12.5523 14.5 12C14.5 11.4477 14.9477 11 15.5 11C16.0523 11 16.5 11.4477 16.5 12Z" fill="#09FF3F"/>
<path d="M6.5 16C6.5 16.5523 6.05229 17 5.5 17C4.94772 17 4.5 16.5523 4.5 16C4.5 15.4477 4.94772 15 5.5 15C6.05229 15 6.5 15.4477 6.5 16Z" fill="#09FF3F"/>
</svg>
