<svg width="18" height="12" viewBox="0 0 18 12" fill="none" xmlns="http://www.w3.org/2000/svg">
<path fill-rule="evenodd" clip-rule="evenodd" d="M16.6667 0.43457H15.6667C15.1144 0.43457 14.6667 0.901751 14.6667 1.47805V10.5215C14.6667 11.0978 15.1144 11.565 15.6667 11.565H16.6667C17.219 11.565 17.6667 11.0978 17.6667 10.5215V1.47805C17.6667 0.901751 17.219 0.43457 16.6667 0.43457ZM11 2.86935H12C12.5523 2.86935 13 3.33653 13 3.91283V10.5215C13 11.0978 12.5523 11.565 12 11.565H11C10.4477 11.565 10 11.0978 10 10.5215V3.91283C10 3.33653 10.4477 2.86935 11 2.86935ZM7.33335 5.30414H6.33335C5.78107 5.30414 5.33335 5.77132 5.33335 6.34761V10.5215C5.33335 11.0978 5.78107 11.565 6.33335 11.565H7.33335C7.88564 11.565 8.33335 11.0978 8.33335 10.5215V6.34761C8.33335 5.77132 7.88564 5.30414 7.33335 5.30414ZM2.66669 7.39109H1.66669C1.1144 7.39109 0.666687 7.85827 0.666687 8.43457V10.5215C0.666687 11.0978 1.1144 11.565 1.66669 11.565H2.66669C3.21897 11.565 3.66669 11.0978 3.66669 10.5215V8.43457C3.66669 7.85827 3.21897 7.39109 2.66669 7.39109Z" fill="black"/>
</svg>
